<svg width="206" height="200" viewBox="0 0 206 200" fill="none" xmlns="http://www.w3.org/2000/svg">
<path d="M65.7895 196.813C61.0085 196.813 56.4936 194.688 53.439 190.837L6.95939 133.068C3.90471 129.216 2.70986 124.303 3.90471 119.522L20.5048 47.4105C21.567 42.6295 24.7544 38.778 29.1374 36.6536L96.3347 4.51475C98.4599 3.45337 100.85 2.92188 103.241 2.92188C105.631 2.92188 108.021 3.45256 110.146 4.51555L177.345 36.521C181.727 38.6453 184.914 42.4968 185.976 47.2779L202.576 119.389C203.639 124.17 202.576 129.084 199.523 132.935L153.041 190.704C149.987 194.422 145.472 196.68 140.691 196.68L65.7912 196.813H65.7895Z" fill="#326DE6"/>
<path d="M102.892 6.24203C104.752 6.24203 106.611 6.64005 108.337 7.43689L175.535 39.4423C178.988 41.1686 181.644 44.356 182.441 48.0748L199.041 120.186C199.971 124.037 199.041 128.022 196.518 131.075L150.037 188.845C147.647 191.899 143.928 193.625 140.077 193.625H65.575C61.7235 193.625 58.0054 191.899 55.6149 188.845L9.13457 131.075C6.74406 128.022 5.81374 124.037 6.61138 120.186L23.2115 48.0748C24.141 44.2233 26.6642 41.036 30.1169 39.4423L97.3159 7.30502C99.0422 6.64086 101.034 6.24284 102.893 6.24284L102.892 6.24203ZM102.892 5.27193e-09C100.104 5.27193e-09 97.3151 0.664166 94.6584 1.85902L27.461 33.9979C22.1485 36.5211 18.4305 41.1686 17.1021 46.8792L0.502023 118.991C-0.825505 124.702 0.502023 130.545 4.22087 135.193L50.7012 192.962C54.2874 197.477 59.7318 200 65.4423 200H139.944C145.654 200 151.1 197.477 154.685 192.962L201.166 135.192C204.884 130.677 206.213 124.702 204.884 118.99L188.284 46.8792C186.957 41.1686 183.238 36.5211 177.926 33.9979L110.993 1.85822C108.47 0.664166 105.681 5.27193e-09 102.892 5.27193e-09V5.27193e-09Z" fill="white"/>
<line x1="101.828" y1="70.1716" x2="143.828" y2="112.172" stroke="white" stroke-width="8"/>
<line x1="103" y1="3" x2="103" y2="160" stroke="white" stroke-width="8"/>
<circle cx="103.5" cy="155.5" r="15.5" fill="white"/>
<circle cx="103.5" cy="72.5" r="15.5" fill="white"/>
<circle cx="144.5" cy="111.5" r="15.5" fill="white"/>
</svg>
