<svg width="250" height="250" viewBox="0 0 250 250" fill="none" xmlns="http://www.w3.org/2000/svg">
<path d="M87.7895 221.813C83.0085 221.813 78.4936 219.688 75.439 215.837L28.9594 158.068C25.9047 154.216 24.7099 149.303 25.9047 144.522L42.5048 72.4105C43.567 67.6295 46.7544 63.778 51.1374 61.6536L118.335 29.5147C120.46 28.4534 122.85 27.9219 125.241 27.9219C127.631 27.9219 130.021 28.4526 132.146 29.5156L199.345 61.521C203.727 63.6453 206.914 67.4968 207.976 72.2779L224.576 144.389C225.639 149.17 224.576 154.084 221.523 157.935L175.041 215.704C171.987 219.422 167.472 221.68 162.691 221.68L87.7912 221.813H87.7895Z" fill="#326DE6"/>
<path d="M124.892 31.242C126.752 31.242 128.611 31.6401 130.337 32.4369L197.535 64.4423C200.988 66.1686 203.644 69.356 204.441 73.0748L221.041 145.186C221.971 149.037 221.041 153.022 218.518 156.075L172.037 213.845C169.647 216.899 165.928 218.625 162.077 218.625H87.575C83.7235 218.625 80.0054 216.899 77.6149 213.845L31.1346 156.075C28.7441 153.022 27.8137 149.037 28.6114 145.186L45.2115 73.0748C46.141 69.2233 48.6642 66.036 52.1169 64.4423L119.316 32.305C121.042 31.6409 123.034 31.2428 124.893 31.2428L124.892 31.242ZM124.892 25C122.104 25 119.315 25.6642 116.658 26.859L49.461 58.9979C44.1485 61.5211 40.4305 66.1686 39.1021 71.8792L22.502 143.991C21.1745 149.702 22.502 155.545 26.2209 160.193L72.7012 217.962C76.2874 222.477 81.7318 225 87.4423 225H161.944C167.654 225 173.1 222.477 176.685 217.962L223.166 160.192C226.884 155.677 228.213 149.702 226.884 143.99L210.284 71.8792C208.957 66.1686 205.238 61.5211 199.926 58.9979L132.993 26.8582C130.47 25.6642 127.681 25 124.892 25V25Z" fill="white"/>
<line x1="123.828" y1="95.1716" x2="165.828" y2="137.172" stroke="white" stroke-width="8"/>
<line x1="125" y1="28" x2="125" y2="185" stroke="white" stroke-width="8"/>
<circle cx="125.5" cy="180.5" r="15.5" fill="white"/>
<circle cx="125.5" cy="97.5" r="15.5" fill="white"/>
<circle cx="166.5" cy="136.5" r="15.5" fill="white"/>
</svg>
